<?xml version="1.0" encoding="UTF-8" standalone="no"?>
<!-- Created with Inkscape (http://www.inkscape.org/) -->

<svg
   width="300"
   height="300"
   viewBox="0 0 79.374998 79.375002"
   version="1.1"
   id="svg5"
   inkscape:version="1.1 (c68e22c387, 2021-05-23)"
   sodipodi:docname="logo delivery.svg"
   xmlns:inkscape="http://www.inkscape.org/namespaces/inkscape"
   xmlns:sodipodi="http://sodipodi.sourceforge.net/DTD/sodipodi-0.dtd"
   xmlns="http://www.w3.org/2000/svg"
   xmlns:svg="http://www.w3.org/2000/svg">
  <sodipodi:namedview
     id="namedview7"
     pagecolor="#b50000"
     bordercolor="#666666"
     borderopacity="1.0"
     inkscape:pageshadow="2"
     inkscape:pageopacity="0"
     inkscape:pagecheckerboard="false"
     inkscape:document-units="mm"
     showgrid="false"
     units="px"
     inkscape:zoom="1.3102506"
     inkscape:cx="144.62882"
     inkscape:cy="129.36457"
     inkscape:window-width="1366"
     inkscape:window-height="705"
     inkscape:window-x="-8"
     inkscape:window-y="-8"
     inkscape:window-maximized="1"
     inkscape:current-layer="layer1" />
  <defs
     id="defs2" />
  <g
     inkscape:label="Capa 1"
     inkscape:groupmode="layer"
     id="layer1">
    <path
       id="path581"
       style="fill:#ffffff;fill-opacity:1;stroke:none;stroke-width:1.05833;stroke-linecap:butt;stroke-linejoin:round;stroke-miterlimit:4;stroke-dasharray:none;stroke-opacity:0"
       d="m 54.255603,44.400906 c 1.147043,0 2.294088,0 3.441134,0 0.991296,-1.854637 2.975787,-3.184567 5.097936,-3.235984 1.498674,-0.06613 3.014451,0.430525 4.169809,1.390759 0.621665,0.500967 1.129467,1.138063 1.498005,1.845225 0.970312,0 1.940621,0 2.910933,0 -0.0086,-0.32539 -0.02087,-0.597146 -0.04049,-0.927661 -0.265855,-4.178797 -1.682707,-8.331319 -4.290194,-11.633893 -1.909152,-2.430936 -4.495681,-4.339402 -7.419983,-5.358979 -1.721498,-0.610615 -3.543313,-0.918156 -5.36715,-0.968752 0,6.296428 0,12.592858 0,18.889285 z" />
    <circle
       style="fill:#ffffff;fill-opacity:1;stroke:none;stroke-width:1.05833;stroke-linejoin:round;stroke-miterlimit:4;stroke-dasharray:none;stroke-opacity:0"
       id="path2488-6"
       cx="63.092499"
       cy="47.265499"
       r="5.0483341" />
    <circle
       style="fill:#ffffff;fill-opacity:1;stroke:none;stroke-width:1.05833;stroke-linejoin:round;stroke-miterlimit:4;stroke-dasharray:none;stroke-opacity:0"
       id="path2488-6-2"
       cx="34.776333"
       cy="47.265335"
       r="5.0483341" />
    <path
       id="rect902"
       style="fill:#ffffff;stroke:none;stroke-width:3.77953;stroke-linecap:round;stroke-linejoin:round;stroke-miterlimit:4;stroke-dasharray:none;stroke-opacity:1"
       d="M 98.3125 96.392578 L 98.3125 105.82617 L 146.2832 105.82617 L 176.95898 151.18164 L 98.3125 151.18164 L 98.3125 167.94531 L 111.05078 167.94531 C 114.68448 161.23233 121.65104 156.28346 129.38281 155.6543 C 133.28868 155.33818 137.28258 155.97303 140.85352 157.60156 C 145.67379 159.60726 149.49172 163.39272 151.84766 167.94531 L 191.05859 167.94531 L 191.05859 96.392578 L 98.3125 96.392578 z "
       transform="scale(0.26458333)" />
    <path
       id="rect8063"
       style="fill:#ffffff;stroke:none;stroke-width:3.77953;stroke-linecap:round;stroke-linejoin:round"
       d="M 33.765625 109.82812 L 33.765625 120.94531 L 151.68164 120.94531 L 144.16016 109.82812 L 33.765625 109.82812 z M 154.16992 124.62305 L 154.16992 124.72461 L 33.765625 124.72461 L 33.765625 136.0625 L 161.9082 136.0625 L 154.16992 124.62305 z M 164.08984 139.28711 L 164.08984 139.8418 L 33.765625 139.8418 L 33.765625 147.17969 L 169.42969 147.17969 L 164.08984 139.28711 z "
       transform="scale(0.26458333)" />
  </g>
</svg>
